<svg width="118" height="135" fill="none" xmlns="http://www.w3.org/2000/svg"><path d="M62.5 92v8h-2.7c-3.2 0-6.2-.5-9-1.4a19.6 19.6 0 0 1-12.6-11.7c-1.2-3-1.8-6.7-1.8-10.9V59.2c0-4.2.6-7.8 1.8-10.9a19.6 19.6 0 0 1 12.5-11.7c3-1 6-1.4 9-1.4h2.8v8h-2.3c-2.2 0-4.3.4-6.2 1-1.8.6-3.5 1.5-4.9 2.9-1.4 1.3-2.4 3-3.3 5-.7 2.1-1.1 4.6-1.1 7.6v15.8c0 3 .4 5.5 1.1 7.6.9 2 2 3.7 3.3 5 1.4 1.4 3 2.3 5 3 1.8.5 3.9.8 6 .8h2.4Zm7.7 0c2.2 0 4.2-.4 6.1-1 1.9-.6 3.5-1.5 4.9-2.9 1.4-1.3 2.5-3 3.3-5a21 21 0 0 0 1.2-7.6V59.7c0-3-.4-5.5-1.2-7.5a13 13 0 0 0-3.3-5.1c-1.4-1.4-3-2.3-4.9-3-1.9-.5-3.9-.8-6.1-.8h-2.3v-8h2.7c3.1 0 6.1.4 9 1.3A19.5 19.5 0 0 1 92 48.3c1.2 3 1.9 6.7 1.9 10.9V76c0 4.2-.7 7.8-2 10.9a20 20 0 0 1-12.5 11.7c-2.8 1-5.8 1.4-9 1.4H68v-8h2.3ZM111.2 38l-2.8 2.8-1.6 1 .2.3 1.4-.5h4.3V44h-4.3l-1.4-.5-.2.4 1.6.9 2.8 2.8-1.6 1.6-2.8-2.8-1-1.6-.3.2.4 1.4v4.3h-2.3v-4.3l.5-1.4-.4-.2-.9 1.6-2.8 2.8-1.6-1.6 2.8-2.8 1.6-1-.2-.3-1.4.5h-4.3v-2.4h4.3l1.4.5.2-.4-1.6-.9-2.8-2.8 1.6-1.6 2.8 2.8.9 1.6.4-.2-.5-1.4v-4.3h2.3v4.3l-.4 1.4.4.2.9-1.6 2.8-2.8 1.6 1.6ZM31.2 78l-2.8 2.8-1.6 1 .2.3 1.4-.5h4.3V84h-4.3l-1.4-.5-.2.4 1.6.9 2.8 2.8-1.6 1.6-2.8-2.8-1-1.6-.3.2.4 1.4v4.3h-2.3v-4.3l.5-1.4-.4-.2-.9 1.6-2.8 2.8-1.6-1.6 2.8-2.8 1.6-1-.2-.3-1.4.5h-4.3v-2.4h4.3l1.4.5.2-.4-1.6-.9-2.8-2.8 1.6-1.6 2.8 2.8.9 1.6.4-.2-.5-1.4v-4.3H26v4.3l-.4 1.4.4.2.9-1.6 2.8-2.8 1.6 1.6ZM16.2 44l-2.8 2.8-1.6 1 .2.3 1.4-.5h4.3V50h-4.3l-1.4-.5-.2.4 1.6.9 2.8 2.8-1.6 1.6-2.8-2.8-1-1.6-.3.2.4 1.4v4.3H8.6v-4.3l.5-1.4-.4-.2-.9 1.6L5 55.2l-1.6-1.6 2.8-2.8 1.6-1-.2-.3-1.4.5H1.9v-2.4h4.3l1.4.5.2-.4-1.6-.9L3.4 44 5 42.4l2.8 2.8.9 1.6.4-.2-.5-1.4v-4.3H11v4.3l-.4 1.4.4.2.9-1.6 2.8-2.8 1.6 1.6Z" fill="#000"/><path d="m51.2 27-2.8 2.8-1.6 1 .2.3 1.4-.5h4.3V33h-4.3l-1.4-.5-.2.4 1.6.9 2.8 2.8-1.6 1.6-2.8-2.8-1-1.6-.3.2.4 1.4v4.3h-2.3v-4.3l.5-1.4-.4-.2-.9 1.6-2.8 2.8-1.6-1.6 2.8-2.8 1.6-1-.2-.3-1.4.5h-4.3v-2.4h4.3l1.4.5.2-.4-1.6-.9-2.8-2.8 1.6-1.6 2.8 2.8.9 1.6.4-.2-.5-1.4v-4.3H46v4.3l-.4 1.4.4.2.9-1.6 2.8-2.8 1.6 1.6ZM114.2 78l-2.8 2.8-1.6 1 .2.3 1.4-.5h4.3V84h-4.3l-1.4-.5-.2.4 1.6.9 2.8 2.8-1.6 1.6-2.8-2.8-1-1.6-.3.2.4 1.4v4.3h-2.3v-4.3l.5-1.4-.4-.2-.9 1.6-2.8 2.8-1.6-1.6 2.8-2.8 1.6-1-.2-.3-1.4.5h-4.3v-2.4h4.3l1.4.5.2-.4-1.6-.9-2.8-2.8 1.6-1.6 2.8 2.8.9 1.6.4-.2-.5-1.4v-4.3h2.3v4.3l-.4 1.4.4.2.9-1.6 2.8-2.8 1.6 1.6ZM96.2 97l-2.8 2.8-1.6 1 .2.3 1.4-.5h4.3v2.4h-4.3l-1.4-.5-.2.4 1.6.9 2.8 2.8-1.6 1.6-2.8-2.8-1-1.6-.3.2.4 1.4v4.3h-2.3v-4.3l.5-1.4-.4-.2-.9 1.6-2.8 2.8-1.6-1.6 2.8-2.8 1.6-1-.2-.3-1.4.5h-4.3v-2.4h4.3l1.4.5.2-.4-1.6-.9-2.8-2.8 1.6-1.6 2.8 2.8.9 1.6.4-.2-.5-1.4v-4.3H91v4.3l-.4 1.4.4.2.9-1.6 2.8-2.8 1.6 1.6ZM56.2 108l-2.8 2.8-1.6 1 .2.3 1.4-.5h4.3v2.4h-4.3l-1.4-.5-.2.4 1.6.9 2.8 2.8-1.6 1.6-2.8-2.8-1-1.6-.3.2.4 1.4v4.3h-2.3v-4.3l.5-1.4-.4-.2-.9 1.6-2.8 2.8-1.6-1.6 2.8-2.8 1.6-1-.2-.3-1.4.5h-4.3v-2.4h4.3l1.4.5.2-.4-1.6-.9-2.8-2.8 1.6-1.6 2.8 2.8.9 1.6.4-.2-.5-1.4v-4.3H51v4.3l-.4 1.4.4.2.9-1.6 2.8-2.8 1.6 1.6ZM86.2 20l-2.8 2.8-1.6 1 .2.3 1.4-.5h4.3V26h-4.3l-1.4-.5-.2.4 1.6.9 2.8 2.8-1.6 1.6-2.8-2.8-1-1.6-.3.2.4 1.4v4.3h-2.3v-4.3l.5-1.4-.4-.2-.9 1.6-2.8 2.8-1.6-1.6 2.8-2.8 1.6-1-.2-.3-1.4.5h-4.3v-2.4h4.3l1.4.5.2-.4-1.6-.9-2.8-2.8 1.6-1.6 2.8 2.8.9 1.6.4-.2-.5-1.4v-4.3H81v4.3l-.4 1.4.4.2.9-1.6 2.8-2.8 1.6 1.6ZM102.2 62l-2.1 2.1-1.2.7v.3l1.2-.4h3.2v1.8h-3.2L99 66l-.1.3 1.2.7 2 2.1-1.2 1.2-2-2-.7-1.3-.3.1.3 1.1v3.3h-1.7v-3.3l.3-1-.3-.2-.6 1.2-2.2 2.1-1.2-1.2 2.1-2.1 1.2-.7v-.3l-1.2.4h-3.2v-1.8h3.2l1.1.4.1-.3-1.2-.7-2-2.1 1.1-1.2 2.2 2 .6 1.3.3-.1-.3-1.1v-3.3h1.7V63l-.3 1 .3.2.6-1.2 2.1-2.1 1.3 1.2ZM37.2 57 35 59.1l-1.2.7v.3l1.2-.4h3.2v1.8h-3.2L34 61l-.1.3 1.2.7 2 2.1-1.2 1.2-2-2-.7-1.3-.3.1.3 1.1v3.3h-1.7v-3.3l.3-1-.3-.2-.6 1.2-2.2 2.1-1.2-1.2 2.1-2.1 1.2-.7v-.3l-1.2.4h-3.2v-1.8h3.2l1.1.4.1-.3-1.2-.7-2-2.1 1.1-1.2 2.2 2 .6 1.3.3-.1-.3-1.1v-3.3h1.7V58l-.3 1 .3.2.6-1.2 2.1-2.1 1.3 1.2Z" fill="#000"/></svg>